<?xml version="1.0" encoding="UTF-8" standalone="no"?>
<!-- Created with Inkscape (http://www.inkscape.org/) -->

<svg
   xmlns:dc="http://purl.org/dc/elements/1.1/"
   xmlns:cc="http://creativecommons.org/ns#"
   xmlns:rdf="http://www.w3.org/1999/02/22-rdf-syntax-ns#"
   xmlns:svg="http://www.w3.org/2000/svg"
   xmlns="http://www.w3.org/2000/svg"
   xmlns:sodipodi="http://sodipodi.sourceforge.net/DTD/sodipodi-0.dtd"
   xmlns:inkscape="http://www.inkscape.org/namespaces/inkscape"
   width="900mm"
   height="1250mm"
   viewBox="0 0 3188.9764 4429.1338"
   id="svg46764"
   version="1.1"
   inkscape:version="0.91 r13725"
   sodipodi:docname="C-1250x900_mm-mdf_9mm.svg">
  <defs
     id="defs46766" />
  <sodipodi:namedview
     id="base"
     pagecolor="#ffffff"
     bordercolor="#666666"
     borderopacity="1.0"
     inkscape:pageopacity="0.0"
     inkscape:pageshadow="2"
     inkscape:zoom="0.075837214"
     inkscape:cx="1721.9765"
     inkscape:cy="2214.5669"
     inkscape:document-units="mm"
     inkscape:current-layer="layer1"
     showgrid="false"
     inkscape:window-width="1152"
     inkscape:window-height="805"
     inkscape:window-x="0"
     inkscape:window-y="0"
     inkscape:window-maximized="1" />
  <metadata
     id="metadata46769">
    <rdf:RDF>
      <cc:Work
         rdf:about="">
        <dc:format>image/svg+xml</dc:format>
        <dc:type
           rdf:resource="http://purl.org/dc/dcmitype/StillImage" />
        <dc:title />
      </cc:Work>
    </rdf:RDF>
  </metadata>
  <g
     inkscape:label="Capa 1"
     inkscape:groupmode="layer"
     id="layer1"
     transform="translate(0,3376.7717)">
    <path
       style="color:#000000;clip-rule:nonzero;display:inline;overflow:visible;visibility:visible;opacity:1;isolation:auto;mix-blend-mode:normal;color-interpolation:sRGB;color-interpolation-filters:linearRGB;solid-color:#000000;solid-opacity:1;fill:#ff0000;fill-opacity:1;fill-rule:nonzero;stroke:#000000;stroke-width:1.77165353;stroke-linecap:round;stroke-linejoin:round;stroke-miterlimit:4;stroke-dasharray:none;stroke-dashoffset:0;stroke-opacity:1;color-rendering:auto;image-rendering:auto;shape-rendering:auto;text-rendering:auto;enable-background:accumulate"
       d="m 2594.9656,872.2474 0,-21.2774 0.3554,0 0,0 19.4883,0 0,0 0.3535,0 0,21.2774 12.0469,0 0,0 0,0 c 49.0748,0 88.584,-39.5092 88.584,-88.584 l 0,-212.5976 c 0,-49.0749 -39.5092,-88.584 -88.584,-88.584 l -24.8027,0 c -3.9139,0 -7.086,3.174 -7.086,7.0879 l 0,82.8867 33.6622,0 0,-8.1524 15.9433,0 0,8.1524 14.1738,0 0,16.6504 -14.1738,0 0,8.1523 -15.9433,0 0,-8.1523 -33.6622,0 0,137.8437 -60.2363,0 0,-63.7793 c 0,-3.9139 -3.1723,-7.0879 -7.0859,-7.0879 l -520.8672,0 c 0,-36.3904 -28.8909,-65.9588 -64.9766,-67.205 l -2.3457,67.205 -31.8906,0 0,-67.3222 0,-147.5723 -79.7246,0 0,8.1523 -15.9453,0 0,-8.1523 -14.1719,0 0,-16.6523 14.1719,0 0,-8.1524 15.9453,0 0,8.1524 79.7246,0 0,-913.4532 -56.6934,0 0,16.4766 -17.7168,0 0,17.7168 -31.8886,0 -8.8594,0 -3.543,0 c -5.889,0 -10.6289,-4.7399 -10.6289,-10.6289 l 0,-63.7793 c 0,-5.8889 4.7399,-10.6309 10.6289,-10.6309 l 3.543,0 8.8594,0 31.8886,0 0,17.7168 17.7168,0 0,16.4785 56.6934,0 0,-358.9414 -56.6934,0 0,16.4785 -17.7168,0 0,17.7168 -31.8886,0 -8.8594,0 -3.543,0 c -5.889,0 -10.6289,-4.7417 -10.6289,-10.6308 l 0,-63.7793 c 0,-5.8889 4.7399,-10.6289 10.6289,-10.6289 l 3.543,0 8.8594,0 31.8886,0 0,17.7148 17.7168,0 0,16.4785 56.6934,0 0,-289.8457 -56.6934,0 0,16.4786 -17.7168,0 0,17.7168 -31.8886,0 -8.8594,0 -3.543,0 c -5.889,0 -10.6289,-4.7419 -10.6289,-10.6309 l 0,-63.7793 c 0,-5.8889 4.7399,-10.6309 10.6289,-10.6309 l 3.543,0 8.8594,0 31.8886,0 0,17.7168 17.7168,0 0,16.4785 56.6934,0 0,-851.4742 -79.7246,0 0,8.152 -15.9453,0 0,-8.152 -14.1719,0 0,-16.651 14.1719,0 0,-8.152 15.9453,0 0,8.152 79.7246,0 0,-574.549 -35.4336,0 c -7.8519,0 -14.1719,-6.321 -14.1719,-14.173 l 0,-120.473 c 0,-7.852 6.32,-14.172 14.1719,-14.172 l 35.4336,0 0,-132.162 10.6309,0 7.0859,0 7.0859,0 c 15.704,0 26.581,-12.741 28.3477,-28.346 l 5.7773,-51.066 5.9453,0 c 5.2838,0 9.5372,-4.254 9.5372,-9.537 l 0,-127.186 0,-0.01 c 1.7663,-15.604 -12.6438,-28.347 -28.3477,-28.347 l -14.1719,0 0,67.324 -5.8554,0 -26.0352,0 0,-114.272 -79.7246,0 0,8.153 -15.9453,0 0,-8.153 -14.1719,0 0,-16.652 14.1719,0 0,-8.152 15.9453,0 0,8.152 79.7246,0 0,-82.375 -531.4961,0 -544.7226,0 0,124.016 63.8574,0 c 46.9874,0 92.0504,18.665 125.2754,51.89 l 303.6992,303.702 c 33.225,33.224 51.8906,78.288 51.8906,125.275 l 0,3088.2715 c 0,46.9875 18.6657,92.0504 51.8906,125.2753 l 303.6992,303.6993 c 33.2254,33.2249 78.2883,51.8904 125.2754,51.8906 z"
       id="path35363"
       inkscape:connector-curvature="0"
       sodipodi:nodetypes="cccccccccccsssssccccccccccccccssccccccccccccccccccccccccssssccccccccccccccssssccccccccccccccssssccccccccccccccccccccssssccccsccssccsccccccccccccccccccccsscsssssc" />
    <path
       sodipodi:nodetypes="cccccccccccsssssccccccccccccccssccccccccccccccccccccccccssssccccccccccccccssssccccccccccccccssssccccccccccccccccccccssssccccsccssccsccccccccccccccccccccsscsssssc"
       inkscape:connector-curvature="0"
       id="path4330"
       d="m 157.8798,-3177.7564 0,21.2774 -0.3554,0 0,0 -19.4883,0 0,0 -0.3535,0 0,-21.2774 -12.0469,0 0,0 0,0 c -49.0748,0 -88.584,39.5092 -88.584,88.584 l 0,212.5976 c 0,49.0749 39.5092,88.584 88.584,88.584 l 24.8027,0 c 3.9139,0 7.086,-3.174 7.086,-7.0879 l 0,-82.8867 -33.6622,0 0,8.1524 -15.9433,0 0,-8.1524 -14.1738,0 0,-16.6504 14.1738,0 0,-8.1523 15.9433,0 0,8.1523 33.6622,0 0,-137.8437 60.2364,0 0,63.7793 c 0,3.9139 3.1723,7.0879 7.0859,7.0879 l 520.8672,0 c 0,36.3904 28.8909,65.9588 64.9766,67.205 l 2.3457,-67.205 31.8906,0 0,67.3222 0,147.5723 79.7246,0 0,-8.1523 15.9453,0 0,8.1523 14.1719,0 0,16.6523 -14.1719,0 0,8.1524 -15.9453,0 0,-8.1524 -79.7246,0 0,913.4532 56.6934,0 0,-16.4766 17.7168,0 0,-17.7167 31.8886,0 8.8594,0 3.543,0 c 5.889,0 10.6289,4.7397 10.6289,10.6288 l 0,63.7793 c 0,5.8889 -4.7399,10.631 -10.6289,10.631 l -3.543,0 -8.8594,0 -31.8886,0 0,-17.7169 -17.7168,0 0,-16.4784 -56.6934,0 0,358.9413 56.6934,0 0,-16.4784 17.7168,0 0,-17.7168 31.8886,0 8.8594,0 3.543,0 c 5.889,0 10.6289,4.7417 10.6289,10.6308 l 0,63.7793 c 0,5.8888 -4.7399,10.6288 -10.6289,10.6288 l -3.543,0 -8.8594,0 -31.8886,0 0,-17.7147 -17.7168,0 0,-16.4786 -56.6934,0 0,289.8458 56.6934,0 0,-16.4786 17.7168,0 0,-17.7168 31.8886,0 8.8594,0 3.543,0 c 5.889,0 10.6289,4.7419 10.6289,10.6309 l 0,63.7793 c 0,5.8889 -4.7399,10.6309 -10.6289,10.6309 l -3.543,0 -8.8594,0 -31.8886,0 0,-17.7168 -17.7168,0 0,-16.4785 -56.6934,0 0,851.47419 79.7246,0 0,-8.152 15.9453,0 0,8.152 14.1719,0 0,16.651 -14.1719,0 0,8.152 -15.9453,0 0,-8.152 -79.7246,0 0,574.549 35.4336,0 c 7.8519,0 14.1719,6.321 14.1719,14.173 l 0,120.473 c 0,7.852 -6.32,14.1719 -14.1719,14.1719 l -35.4336,0 0,132.1621 -10.6309,0 -7.0859,0 -7.0859,0 c -15.704,0 -26.581,12.741 -28.3477,28.3459 l -5.7773,51.066 -5.9453,0 c -5.2838,0 -9.5372,4.254 -9.5372,9.537 l 0,127.186 0,0.01 c -1.7663,15.6041 12.6438,28.3471 28.3477,28.3471 l 14.1719,0 0,-67.3241 5.8554,0 26.0352,0 0,114.272 79.7246,0 0,-8.1529 15.9453,0 0,8.1529 14.1719,0 0,16.652 -14.1719,0 0,8.152 -15.9453,0 0,-8.152 -79.7246,0 0,82.3749 531.4961,0 544.7226,0 0,-124.0158 -63.8574,0 c -46.9874,0 -92.0504,-18.665 -125.2754,-51.8901 l -303.6992,-303.702 c -33.225,-33.224 -51.8906,-78.2879 -51.8906,-125.2749 l 0,-3088.27159 c 0,-46.9875 -18.6657,-92.0504 -51.8906,-125.2753 l -303.6992,-303.6993 c -33.2254,-33.2249 -78.2883,-51.8904 -125.2754,-51.8906 z"
       style="color:#000000;clip-rule:nonzero;display:inline;overflow:visible;visibility:visible;opacity:1;isolation:auto;mix-blend-mode:normal;color-interpolation:sRGB;color-interpolation-filters:linearRGB;solid-color:#000000;solid-opacity:1;fill:#ff0000;fill-opacity:1;fill-rule:nonzero;stroke:#000000;stroke-width:1.77165353;stroke-linecap:round;stroke-linejoin:round;stroke-miterlimit:4;stroke-dasharray:none;stroke-dashoffset:0;stroke-opacity:1;color-rendering:auto;image-rendering:auto;shape-rendering:auto;text-rendering:auto;enable-background:accumulate" />
    <path
       id="path12567"
       d="m 2405.0891,-2934.456 c -15.704,0 -28.346,-12.6426 -28.346,-28.3465 l 0,-187.7955 c 0,-15.7039 12.642,-28.3464 28.346,-28.3464 l 7.087,0 0,67.3229 32.243,0 0,-70.8662 42.519,0 c 15.704,0 28.347,-12.6426 28.347,-28.3465 l 0,-77.9528 35.433,0 0,-24.8032 c 0,-3.926 3.161,-7.0866 7.087,-7.0866 l 92.126,0 c 3.926,0 7.086,3.1606 7.086,7.0866 l 0,24.8032 90.888,0 0,79.7244 -8.153,0 0,15.9449 8.153,0 0,14.1733 16.65,0 0,-14.1733 8.153,0 0,-15.9449 -8.153,0 0,-79.7244 90.888,0 0,-24.8032 c 0,-3.926 3.16,-7.0866 7.086,-7.0866 l 92.126,0 c 3.926,0 7.087,3.1606 7.087,7.0866 l 0,24.8032 35.433,0 0,77.9528 c 0,15.7039 12.643,28.3465 28.346,28.3465 l 42.52,0 0,70.8662 32.243,0 0,-67.3229 7.087,0 c 15.703,0 28.346,12.6425 28.346,28.3464 l 0,187.7955 c 0,15.7039 -12.643,28.3465 -28.346,28.3465"
       style="color:#000000;clip-rule:nonzero;display:inline;overflow:visible;visibility:visible;opacity:1;isolation:auto;mix-blend-mode:normal;color-interpolation:sRGB;color-interpolation-filters:linearRGB;solid-color:#000000;solid-opacity:1;fill:#ff0000;fill-opacity:1;fill-rule:nonzero;stroke:#000000;stroke-width:1.77165353;stroke-linecap:round;stroke-linejoin:round;stroke-miterlimit:4;stroke-dasharray:none;stroke-dashoffset:0;stroke-opacity:1;color-rendering:auto;image-rendering:auto;shape-rendering:auto;text-rendering:auto;enable-background:accumulate"
       inkscape:connector-curvature="0"
       sodipodi:nodetypes="csssccccssccssssccccccccccccccssssccssccccsssc" />
    <path
       inkscape:connector-curvature="0"
       style="display:inline;opacity:1;fill:#00ff00;fill-opacity:1;stroke:#000000;stroke-width:1.77165353;stroke-linecap:round;stroke-linejoin:round;stroke-miterlimit:4;stroke-dasharray:none;stroke-dashoffset:0;stroke-opacity:1"
       d="m 3151.9247,-1517.132 -1133.8592,0 0,-1417.324 1133.8592,0 z"
       id="rect11190-1" />
    <path
       style="display:inline;opacity:1;fill:#000080;fill-opacity:1;stroke:#000000;stroke-width:1.77165353;stroke-linecap:round;stroke-linejoin:round;stroke-miterlimit:4;stroke-dasharray:none;stroke-dashoffset:0;stroke-opacity:1"
       d="M 127.84766 3513.5312 L 127.84766 3545.4219 L 89.619141 3545.4219 L 89.619141 4169.0449 L 127.84766 4169.0449 L 127.84766 4200.9336 L 156.19531 4200.9336 L 170.36719 4169.0449 L 346.02539 4169.0449 L 346.02539 4200.9336 L 374.37109 4200.9336 L 388.54492 4169.0449 L 564.20898 4169.0449 L 564.20898 4200.9336 L 592.55469 4200.9336 L 606.72852 4169.0449 L 706.1543 4169.0449 L 706.1543 4057.6094 L 564.42188 4057.6094 L 564.42188 4025.5391 L 706.1543 4025.3594 L 706.1543 3689.1035 L 564.42188 3689.1035 L 564.42188 3657.0332 L 706.1543 3656.8535 L 706.1543 3545.4219 L 606.72852 3545.4219 L 592.55469 3513.5312 L 564.20898 3513.5312 L 564.20898 3545.4219 L 388.54492 3545.4219 L 374.37109 3513.5312 L 346.02539 3513.5312 L 346.02539 3545.4219 L 170.36719 3545.4219 L 156.19531 3513.5312 L 127.84766 3513.5312 z M 390.80078 3742.209 A 8.858275 8.858275 0 0 1 399.6582 3751.0664 A 8.858275 8.858275 0 0 1 390.80078 3759.9258 A 8.858275 8.858275 0 0 1 381.94141 3751.0664 A 8.858275 8.858275 0 0 1 390.80078 3742.209 z M 374.67773 3812.6758 L 406.92188 3812.6758 L 406.92188 3901.7891 L 374.67773 3901.7891 L 374.67773 3812.6758 z M 390.80078 3954.541 A 8.858275 8.858275 0 0 1 399.6582 3963.3984 A 8.858275 8.858275 0 0 1 390.80078 3972.2578 A 8.858275 8.858275 0 0 1 381.94141 3963.3984 A 8.858275 8.858275 0 0 1 390.80078 3954.541 z "
       transform="translate(0,-3376.7717)"
       id="path20314-6-0" />
    <path
       style="color:#000000;clip-rule:nonzero;display:inline;overflow:visible;visibility:visible;opacity:1;isolation:auto;mix-blend-mode:normal;color-interpolation:sRGB;color-interpolation-filters:linearRGB;solid-color:#000000;solid-opacity:1;fill:#000080;fill-opacity:1;fill-rule:nonzero;stroke:#000000;stroke-width:1.77165353;stroke-linecap:round;stroke-linejoin:round;stroke-miterlimit:4;stroke-dasharray:none;stroke-dashoffset:0;stroke-opacity:1;color-rendering:auto;image-rendering:auto;shape-rendering:auto;text-rendering:auto;enable-background:accumulate"
       d="m 3086.8771,961.9441 0,-35.4321 -31.89,4e-4 0,-17.7282 -31.89,7e-4 0,-176.9838 30.117,0 0,-88.9409 -30.121,0 0,-115.5063 -35.442,-7e-4 0,8.1493 -15.945,-4e-4 0,-8.1492 -12.394,0 0,-16.6476 12.404,-7e-4 0,-8.1542 15.945,-4e-4 0,8.155 35.432,0 0,-18.7842 0,-16.662 0,-44.8201 31.89,0 0,-5.8553 c 0,-41.6994 -14.692,-82.0652 -41.496,-114.0085 l -36.071,-42.9894 -223.827,-266.7471 c -25.235,-30.075 -69.763,-33.9797 -99.838,-8.7442 l -12.214,10.249 236.874,282.2959 -24.429,20.4984 -236.874,-282.2959 -28.5,23.9149 c -30.076,25.2358 -33.981,69.7628 -8.745,99.8373 l 69.467,82.7873 41.399,-34.7379 20.493,24.4241 -41.393,34.7333 137.123,163.4167 0,276.3768 0,0.057 c 0,33.3089 11.748,65.5501 33.158,91.0659 l 34.417,41.0173 16.286,-13.6658 c 3.008,-2.5236 7.461,-2.1338 9.984,0.8738 2.524,3.0072 2.134,7.4601 -0.873,9.9836 l -16.286,13.6655 36.441,43.4296 16.286,-13.6658 c 3.008,-2.5236 7.461,-2.1338 9.984,0.8734 2.524,3.0076 2.134,7.4605 -0.873,9.984 l -16.286,13.6655 59.622,71.0554 66.173,0 31.885,0 0.03,0.035 z"
       id="path30000"
       inkscape:connector-curvature="0" />
    <path
       inkscape:connector-curvature="0"
       style="color:#000000;clip-rule:nonzero;display:inline;overflow:visible;visibility:visible;opacity:1;isolation:auto;mix-blend-mode:normal;color-interpolation:sRGB;color-interpolation-filters:linearRGB;solid-color:#000000;solid-opacity:1;fill:#ff0000;fill-opacity:1;fill-rule:nonzero;stroke:#000000;stroke-width:1.77165353;stroke-linecap:round;stroke-linejoin:round;stroke-miterlimit:4;stroke-dasharray:none;stroke-dashoffset:0;stroke-opacity:1;color-rendering:auto;image-rendering:auto;shape-rendering:auto;text-rendering:auto;enable-background:accumulate"
       d="m 54.5564,47.2616 66.0842,0 0,-79.7244 -8.1525,0 0,-15.9449 8.1525,0 0,-14.1733 16.6507,0 0,14.1733 8.1525,0 0,15.9449 -8.1525,0 0,79.7244 23.5644,0 0,24.9832 c 0,3.926 3.1607,7.0866 7.0867,7.0866 l 127.5591,0 c 3.926,0 7.0866,-3.1606 7.0866,-7.0866 l 0,-24.9832 177.1655,0 0,24.9832 c 0,3.926 3.1607,7.0866 7.0867,7.0866 l 127.5591,0 c 3.926,0 7.0866,-3.1606 7.0866,-7.0866 l 0,-24.9832 23.5645,0 0,-79.7244 -8.1525,0 0,-15.9449 8.1525,0 0,-14.1733 16.6507,0 0,14.1733 8.1524,0 0,15.9449 -8.1524,0 0,79.7244 66.0841,0 0,-2767.3251 -66.0841,0 0,79.7245 8.1524,0 0,15.9449 -8.1524,0 0,14.1732 -16.6507,0 0,-14.1732 -8.1525,0 0,-15.9449 8.1525,0 0,-79.7245 -23.5645,0 0,-24.8031 c 0,-3.926 -3.1606,-7.0867 -7.0866,-7.0867 l -127.5591,0 c -3.926,0 -7.0867,3.1607 -7.0867,7.0867 l 0,24.8031 -177.1655,0 0,-24.8031 c 0,-3.926 -3.1606,-7.0867 -7.0866,-7.0867 l -127.5591,0 c -3.926,0 -7.0867,3.1607 -7.0867,7.0867 l 0,24.8031 -23.5644,0 0,79.7245 8.1525,0 0,15.9449 -8.1525,0 0,14.1732 -16.6507,0 0,-14.1732 -8.1525,0 0,-15.9449 8.1525,0 0,-79.7245 -66.0842,0 z"
       id="rect12916"
       sodipodi:nodetypes="ccccccccccccccssssccssssccccccccccccccccccccccccccccssssccssssccccccccccccccc" />
    <path
       style="color:#000000;clip-rule:nonzero;display:inline;overflow:visible;visibility:visible;opacity:1;isolation:auto;mix-blend-mode:normal;color-interpolation:sRGB;color-interpolation-filters:linearRGB;solid-color:#000000;solid-opacity:1;fill:#000080;fill-opacity:1;fill-rule:nonzero;stroke:#000000;stroke-width:1.77165353;stroke-linecap:round;stroke-linejoin:round;stroke-miterlimit:4;stroke-dasharray:none;stroke-dashoffset:0;stroke-opacity:1;color-rendering:auto;image-rendering:auto;shape-rendering:auto;text-rendering:auto;enable-background:accumulate"
       d="M 2093.5957 3370.9746 C 2054.3358 3370.9746 2022.7285 3402.5819 2022.7285 3441.8418 L 2022.7285 3881.2129 C 2022.7285 3920.4728 2054.3358 3952.0781 2093.5957 3952.0781 L 2430.209 3952.0781 C 2469.4688 3952.0781 2501.0762 3920.4728 2501.0762 3881.2129 L 2501.0762 3829.834 L 2459.2832 3829.834 C 2430.3003 3829.834 2406.9629 3806.5043 2406.9629 3777.5215 L 2406.9629 3545.5391 C 2406.9629 3516.5562 2430.3003 3493.2188 2459.2832 3493.2188 L 2501.0762 3493.2188 L 2501.0762 3441.8418 C 2501.0762 3402.5819 2469.4688 3370.9746 2430.209 3370.9746 L 2093.5957 3370.9746 z M 2199.7168 3461.1543 L 2288.6543 3461.1543 L 2288.6543 3493.3984 L 2199.7168 3493.3984 L 2199.7168 3461.1543 z M 2412.4902 3468.418 A 8.858275 8.858275 0 0 1 2421.3496 3477.2773 A 8.858275 8.858275 0 0 1 2412.4902 3486.1348 A 8.858275 8.858275 0 0 1 2403.6328 3477.2773 A 8.858275 8.858275 0 0 1 2412.4902 3468.418 z M 2062.5898 3568.5176 L 2280.5039 3568.5176 C 2286.8836 3568.5176 2292.0195 3573.6535 2292.0195 3580.0332 C 2292.0195 3586.4129 2286.8836 3591.5488 2280.5039 3591.5488 L 2062.5898 3591.5488 C 2056.2101 3591.5488 2051.0742 3586.4129 2051.0742 3580.0332 C 2051.0742 3573.6535 2056.2101 3568.5176 2062.5898 3568.5176 z M 2062.5898 3731.5098 L 2280.5039 3731.5098 C 2286.8836 3731.5098 2292.0195 3736.6457 2292.0195 3743.0254 C 2292.0195 3749.4051 2286.8836 3754.541 2280.5039 3754.541 L 2062.5898 3754.541 C 2056.2101 3754.541 2051.0742 3749.4051 2051.0742 3743.0254 C 2051.0742 3736.6457 2056.2101 3731.5098 2062.5898 3731.5098 z M 2199.7168 3829.6582 L 2288.6543 3829.6582 L 2288.6543 3861.9023 L 2199.7168 3861.9023 L 2199.7168 3829.6582 z M 2412.4902 3836.9219 A 8.858275 8.858275 0 0 1 2421.3496 3845.7812 A 8.858275 8.858275 0 0 1 2412.4902 3854.6387 A 8.858275 8.858275 0 0 1 2403.6328 3845.7812 A 8.858275 8.858275 0 0 1 2412.4902 3836.9219 z "
       transform="translate(0,-3376.7717)"
       id="rect14000-9-2" />
    <path
       sodipodi:nodetypes="cccccccccccccccccccccccccccccccccccccccc"
       inkscape:connector-curvature="0"
       style="display:inline;opacity:1;fill:#00ff00;fill-opacity:1;stroke:#000000;stroke-width:1.77165353;stroke-linecap:round;stroke-linejoin:round;stroke-miterlimit:4;stroke-dasharray:none;stroke-dashoffset:0;stroke-opacity:1"
       d="m 2018.0653,-1517.132 0,342.8145 32.2422,0 0,0.709 0,32.2441 0,0.709 -32.2422,0 0,418.1113 32.2422,0 0,0.7051 0,32.25 0,0.7051 -32.2422,0 0,306.4961 32.2422,0 0,0.705 0,32.25 0,0.7051 -32.2422,0 0,248.918 1133.8594,0 0,-342.8145 -32.25,0 0,-0.709 0,-32.2441 0,-0.709 32.25,0 0,-418.1113 -32.25,0 0,-0.7051 0,-32.25 0,-0.7051 32.25,0 0,-306.4961 -32.25,0 0,-0.705 0,-32.25 0,-0.7051 32.25,0 0,-248.918"
       id="path11156-2" />
    <path
       style="color:#000000;clip-rule:nonzero;display:inline;overflow:visible;visibility:visible;opacity:1;isolation:auto;mix-blend-mode:normal;color-interpolation:sRGB;color-interpolation-filters:linearRGB;solid-color:#000000;solid-opacity:1;fill:#ffffff;fill-opacity:1;fill-rule:nonzero;stroke:#000000;stroke-width:1.77165353;stroke-linecap:round;stroke-linejoin:round;stroke-miterlimit:4;stroke-dasharray:none;stroke-dashoffset:0;stroke-opacity:1;color-rendering:auto;image-rendering:auto;shape-rendering:auto;text-rendering:auto;enable-background:accumulate"
       d="M 844.57031 199.01953 L 844.57031 220.29297 L 844.92578 220.29297 L 844.92578 220.30273 L 864.41406 220.30273 L 864.41406 220.29297 L 864.76758 220.29297 L 864.76758 199.01953 L 844.57031 199.01953 z M 888.57422 401.31445 C 887.66848 401.31445 886.76236 401.66142 886.06836 402.35547 L 871.03516 417.38867 C 869.64716 418.77677 869.64716 421.01239 871.03516 422.40039 L 881.05664 432.42188 C 882.44464 433.80998 884.68026 433.80998 886.06836 432.42188 L 901.10156 417.38867 C 902.48956 416.00067 902.48956 413.76691 901.10156 412.37891 L 891.08008 402.35547 C 890.38603 401.66142 889.47996 401.31445 888.57422 401.31445 z M 1215.5234 653.51172 C 1215.0631 653.51287 1214.5943 653.60317 1214.1426 653.79492 L 1194.5723 662.10156 C 1192.7652 662.86856 1191.9283 664.94105 1192.6953 666.74805 L 1198.2344 679.79492 C 1199.0014 681.60212 1201.072 682.43887 1202.8789 681.67188 L 1222.4492 673.36523 C 1224.2564 672.59823 1225.0932 670.52565 1224.3262 668.71875 L 1218.7891 655.67188 C 1218.2138 654.31655 1216.9045 653.50825 1215.5234 653.51172 z M 1218.6426 1125.9375 L 1197.3867 1126.3086 C 1195.424 1126.3429 1193.8722 1127.9514 1193.9062 1129.9141 L 1194.1523 1144.084 C 1194.1866 1146.0467 1195.7951 1147.6004 1197.7578 1147.5664 L 1219.0137 1147.1953 C 1220.9764 1147.1611 1222.5301 1145.5525 1222.4961 1143.5898 L 1222.248 1129.418 C 1222.2137 1127.4553 1220.6053 1125.9035 1218.6426 1125.9375 z M 1218.6445 2259.7969 L 1197.3867 2260.168 C 1195.424 2260.2023 1193.8722 2261.8107 1193.9062 2263.7734 L 1194.1543 2277.9453 C 1194.1885 2279.908 1195.7951 2281.4598 1197.7578 2281.4258 L 1219.0156 2281.0547 C 1220.9783 2281.0204 1222.5301 2279.4119 1222.4961 2277.4492 L 1222.248 2263.2793 C 1222.2137 2261.3166 1220.6072 2259.7629 1218.6445 2259.7969 z M 1218.6445 3606.2539 L 1197.3867 3606.625 C 1195.424 3606.6593 1193.8722 3608.2678 1193.9062 3610.2305 L 1194.1543 3624.4023 C 1194.1886 3626.365 1195.7951 3627.9168 1197.7578 3627.8828 L 1219.0156 3627.5117 C 1220.9783 3627.4775 1222.5301 3625.869 1222.4961 3623.9062 L 1222.248 3609.7363 C 1222.2138 3607.7736 1220.6072 3606.2199 1218.6445 3606.2539 z M 1354.2148 4294.5469 L 1354.2148 4327.498 L 1496.6562 4327.498 L 1496.6562 4294.5469 L 1354.2148 4294.5469 z M 1672.4043 4294.5469 L 1672.4043 4327.498 L 1814.8457 4327.498 L 1814.8457 4294.5469 L 1672.4043 4294.5469 z M 1322.3242 4302.1641 A 8.858275 8.858275 0 0 0 1313.4668 4311.0234 A 8.858275 8.858275 0 0 0 1322.3242 4319.8809 A 8.858275 8.858275 0 0 0 1331.1836 4311.0234 A 8.858275 8.858275 0 0 0 1322.3242 4302.1641 z M 1846.7344 4302.1641 A 8.858275 8.858275 0 0 0 1837.877 4311.0234 A 8.858275 8.858275 0 0 0 1846.7344 4319.8809 A 8.858275 8.858275 0 0 0 1855.5938 4311.0234 A 8.858275 8.858275 0 0 0 1846.7344 4302.1641 z "
       transform="translate(0,-3376.7717)"
       id="path30063" />
    <path
       style="color:#000000;clip-rule:nonzero;display:inline;overflow:visible;visibility:visible;opacity:1;isolation:auto;mix-blend-mode:normal;color-interpolation:sRGB;color-interpolation-filters:linearRGB;solid-color:#000000;solid-opacity:1;fill:#ffffff;fill-opacity:1;fill-rule:nonzero;stroke:#000000;stroke-width:1.77165353;stroke-linecap:round;stroke-linejoin:round;stroke-miterlimit:4;stroke-dasharray:none;stroke-dashoffset:0;stroke-opacity:1;color-rendering:auto;image-rendering:auto;shape-rendering:auto;text-rendering:auto;enable-background:accumulate"
       d="M 938 120.53516 L 938 153.48828 L 1080.4414 153.48828 L 1080.4414 120.53516 L 938 120.53516 z M 1256.1895 120.53516 L 1256.1895 153.48828 L 1398.6309 153.48828 L 1398.6309 120.53516 L 1256.1895 120.53516 z M 906.11133 128.1543 A 8.858275 8.858275 0 0 0 897.25195 137.01172 A 8.858275 8.858275 0 0 0 906.11133 145.86914 A 8.858275 8.858275 0 0 0 914.96875 137.01172 A 8.858275 8.858275 0 0 0 906.11133 128.1543 z M 1430.5195 128.1543 A 8.858275 8.858275 0 0 0 1421.6621 137.01172 A 8.858275 8.858275 0 0 0 1430.5195 145.86914 A 8.858275 8.858275 0 0 0 1439.3789 137.01172 A 8.858275 8.858275 0 0 0 1430.5195 128.1543 z M 1888.4297 4227.7363 L 1888.4297 4227.7461 L 1888.0762 4227.7461 L 1888.0762 4249.0195 L 1908.2734 4249.0195 L 1908.2734 4227.7461 L 1907.918 4227.7461 L 1907.918 4227.7363 L 1888.4297 4227.7363 z "
       transform="translate(0,-3376.7717)"
       id="path35365" />
    <path
       style="fill:#ffffff;fill-opacity:1;stroke:#000000;stroke-width:1.77165353;stroke-linecap:round;stroke-linejoin:round;stroke-miterlimit:4;stroke-dasharray:none;stroke-dashoffset:0"
       d="M 2164.2246 1947.3359 L 2164.2246 2037.6895 L 2197.8848 2037.6895 L 2197.8848 1947.3359 L 2164.2246 1947.3359 z M 2972.0977 1947.3359 L 2972.0977 2037.6895 L 3005.7598 2037.6895 L 3005.7598 1947.3359 L 2972.0977 1947.3359 z M 3004.166 2108.5566 L 3004.166 2142.2188 L 3037.8281 2142.2188 L 3037.8281 2108.5566 L 3004.166 2108.5566 z M 2360.6562 2178.5332 L 2271.4102 2267.7871 L 2271.4102 2636.1133 L 2297.4727 2745.4629 L 2359.9922 2745.4629 L 2359.9922 2891.7637 L 2430.5137 2922.6289 L 2530.0723 2922.6289 L 2530.0723 2613.0254 A 70.8662 70.8662 0 0 1 2514.127 2568.2988 A 70.8662 70.8662 0 0 1 2530.0723 2523.5977 L 2530.0723 2391.1328 L 2441.4883 2391.1328 L 2441.4883 2178.5332 L 2360.6562 2178.5332 z M 2728.5039 2178.5332 L 2728.5039 2391.1328 L 2639.9219 2391.1328 L 2639.9219 2523.5781 A 70.8662 70.8662 0 0 1 2655.8594 2568.2988 A 70.8662 70.8662 0 0 1 2639.9219 2612.998 L 2639.9219 2922.6289 L 2739.4805 2922.6289 L 2810 2891.7637 L 2810 2745.4629 L 2872.5195 2745.4629 L 2898.582 2636.1133 L 2898.582 2267.7871 L 2809.3359 2178.5332 L 2728.5039 2178.5332 z M 2132.1582 2202.4531 L 2132.1582 2236.1152 L 2165.8184 2236.1152 L 2165.8184 2202.4531 L 2132.1582 2202.4531 z M 2972.0977 2250.2891 L 2972.0977 2340.6426 L 3005.7598 2340.6426 L 3005.7598 2250.2891 L 2972.0977 2250.2891 z M 2164.2246 2399.6387 L 2164.2246 2489.9941 L 2197.8848 2489.9941 L 2197.8848 2399.6387 L 2164.2246 2399.6387 z M 3004.166 2448.7148 L 3004.166 2482.375 L 3037.8281 2482.375 L 3037.8281 2448.7148 L 3004.166 2448.7148 z M 2584.9941 2557.1387 A 11.161427 11.161427 0 0 0 2573.834 2568.3008 A 11.161427 11.161427 0 0 0 2584.9941 2579.4629 A 11.161427 11.161427 0 0 0 2596.1562 2568.3008 A 11.161427 11.161427 0 0 0 2584.9941 2557.1387 z M 2972.0977 2646.6074 L 2972.0977 2736.9629 L 3005.7598 2736.9629 L 3005.7598 2646.6074 L 2972.0977 2646.6074 z M 2132.1582 2654.2266 L 2132.1582 2687.8887 L 2165.8203 2687.8887 L 2165.8203 2654.2266 L 2132.1582 2654.2266 z M 2164.2246 2795.959 L 2164.2246 2886.3125 L 2197.8848 2886.3125 L 2197.8848 2795.959 L 2164.2246 2795.959 z M 3004.166 2900.4863 L 3004.166 2934.1484 L 3037.8281 2934.1484 L 3037.8281 2900.4863 L 3004.166 2900.4863 z M 2132.1582 2994.3848 L 2132.1582 3028.0449 L 2165.8203 3028.0449 L 2165.8203 2994.3848 L 2132.1582 2994.3848 z M 2164.2246 3098.9121 L 2164.2246 3189.2656 L 2197.8848 3189.2656 L 2197.8848 3098.9121 L 2164.2246 3098.9121 z M 2972.0977 3098.9121 L 2972.0977 3189.2656 L 3005.7598 3189.2656 L 3005.7598 3098.9121 L 2972.0977 3098.9121 z "
       transform="translate(0,-3376.7717)"
       id="path11182-7" />
    <path
       style="display:inline;opacity:1;fill:#ffffff;fill-opacity:1;stroke:#000000;stroke-width:1.77165353;stroke-linecap:round;stroke-linejoin:round;stroke-miterlimit:4;stroke-dasharray:none;stroke-dashoffset:0;stroke-opacity:1"
       d="M 2156.2539 513.18164 L 2156.2539 1469.875 L 2191.6875 1469.875 L 2191.6875 513.18164 L 2156.2539 513.18164 z M 2430.8594 513.18164 L 2430.8594 1469.875 L 2466.293 1469.875 L 2466.293 513.18164 L 2430.8594 513.18164 z M 2703.6973 513.18164 L 2703.6973 1469.875 L 2739.1309 1469.875 L 2739.1309 513.18164 L 2703.6973 513.18164 z M 2978.3027 513.18164 L 2978.3027 1469.875 L 3013.7363 1469.875 L 3013.7363 513.18164 L 2978.3027 513.18164 z M 2067.6719 832.08008 L 2067.6719 1788.7734 L 2103.1055 1788.7734 L 2103.1055 832.08008 L 2067.6719 832.08008 z M 2335.1895 832.08008 L 2335.1895 1788.7734 L 2370.623 1788.7734 L 2370.623 832.08008 L 2335.1895 832.08008 z M 2799.3672 832.08008 L 2799.3672 1788.7734 L 2834.8008 1788.7734 L 2834.8008 832.08008 L 2799.3672 832.08008 z M 3066.8848 832.08008 L 3066.8848 1788.7734 L 3102.3184 1788.7734 L 3102.3184 832.08008 L 3066.8848 832.08008 z M 2584.9941 1139.8164 A 11.161427 11.161427 0 0 0 2573.834 1150.9785 A 11.161427 11.161427 0 0 0 2584.9941 1162.1387 A 11.161427 11.161427 0 0 0 2596.1562 1150.9785 A 11.161427 11.161427 0 0 0 2584.9941 1139.8164 z "
       transform="translate(0,-3376.7717)"
       id="path11188-8" />
  </g>
</svg>
